<?xml version="1.0" encoding="UTF-8"?>
<svg width="20px" height="18px" viewBox="0 0 20 18" version="1.1" xmlns="http://www.w3.org/2000/svg" xmlns:xlink="http://www.w3.org/1999/xlink">
    <!-- Generator: Sketch 39 (31667) - http://www.bohemiancoding.com/sketch -->
    <title>massage</title>
    <desc>Created with Sketch.</desc>
    <defs></defs>
    <g id="发现" stroke="none" stroke-width="1" fill="none" fill-rule="evenodd">
        <g id="08-发现-车友圈-个人主页-新消息提示" transform="translate(-343.000000, -34.000000)" fill="#FFFFFF">
            <g id="Navigation-Bar">
                <path d="M347.346816,52 C347.250245,52 347.153628,51.9774497 347.066496,51.9321805 C346.886656,51.8387519 346.775387,51.6630751 346.775387,51.4726319 L346.775387,48.3768338 L346.746633,48.3581649 C346.176415,47.9884377 345.655249,47.567809 345.197648,47.1079651 C344.737031,46.6451047 344.339727,46.1414261 344.016778,45.6108727 C343.687841,45.0705525 343.434652,44.4999613 343.264229,43.9149625 C343.088892,43.3131512 343,42.691553 343,42.0674867 C343,40.9794631 343.263909,39.9239465 343.784389,38.9301952 C344.287453,37.9696892 345.007842,37.1069151 345.925558,36.3658153 C346.843936,35.6241671 347.913537,35.0418472 349.104624,34.6350355 C350.338294,34.2136473 351.648901,34 353.000057,34 C354.35119,34 355.661774,34.2136473 356.895422,34.6350355 C358.086486,35.0418683 359.156087,35.6241881 360.074442,36.3658153 C360.992135,37.1069151 361.712547,37.9696892 362.215633,38.9301952 C362.736114,39.9239465 363,40.9794842 363,42.0674656 C363,43.155658 362.736091,44.2113222 362.215611,45.2051157 C361.712547,46.1656006 360.992181,47.0283958 360.074442,47.7694745 C359.156064,48.5110806 358.086463,49.0933582 356.895399,49.5001066 C355.661843,49.9214315 354.351236,50.1350578 353.000057,50.1350578 C352.389908,50.1350578 351.777884,50.0873837 351.129038,49.9893144 L351.104375,49.9856017 L347.643228,51.9234894 C347.552257,51.9744332 347.449582,52 347.346816,52 Z M357.760871,43.274358 C357.107102,43.274358 356.576472,42.7547317 356.576472,42.1128404 C356.576472,41.4710334 357.107102,40.9514493 357.760871,40.9514493 C358.414769,40.9514493 358.945399,41.4717717 358.945399,42.1128404 C358.945399,42.7540355 358.414769,43.274358 357.760871,43.274358 Z M353.019825,43.274358 C352.366659,43.274358 351.835297,42.7547317 351.835297,42.1128404 C351.835297,41.4710334 352.366659,40.9514493 353.019825,40.9514493 C353.673594,40.9514493 354.204224,41.4717717 354.204224,42.1128404 C354.204224,42.7540355 353.673594,43.274358 353.019825,43.274358 Z M348.290279,43.274358 C347.637199,43.274358 347.10588,42.7547317 347.10588,42.1128404 C347.10588,41.4710334 347.637199,40.9514493 348.290279,40.9514493 C348.944048,40.9514493 349.474679,41.4717717 349.474679,42.1128404 C349.474679,42.7540355 348.944048,43.274358 348.290279,43.274358 Z" id="massage"></path>
            </g>
        </g>
    </g>
</svg>